<svg xmlns="http://www.w3.org/2000/svg"><symbol id="sprite-arrow-left"><path d="M2.045 20.859L21.458 1.446A.847.847 0 0 0 20.261.248L.248 20.261a.846.846 0 0 0 0 1.197l20.013 20.013a.843.843 0 0 0 1.198 0 .847.847 0 0 0 0-1.198L2.045 20.859z"/></symbol><symbol id="sprite-arrow-right"><path d="M19.661 20.859L.248 1.446A.847.847 0 0 1 1.445.248L21.458 20.26c.33.33.33.867 0 1.197L1.445 41.471a.843.843 0 0 1-1.198 0 .847.847 0 0 1 0-1.198l19.414-19.414z"/></symbol><symbol id="sprite-icon-facebook"><path d="M6.275 3.357h2.398V0H5.795C2.656.181 1.54 2.387 1.948 6.115H0v3.517h1.958v9.312h3.837V9.632h2.857V6.115H5.786c-.021-1.045-.036-2.406.489-2.758z"/></symbol><symbol id="sprite-icon-inst" viewBox="0 0 121.7 121.7"><path d="M79.9 31.5H41.8c-5.6 0-10.2 4.6-10.2 10.2V80c0 5.6 4.6 10.2 10.2 10.2h38.1c5.6 0 10.2-4.6 10.2-10.2V41.7c0-5.6-4.6-10.2-10.2-10.2zM69.6 60.7c0 4.9-3.9 8.8-8.8 8.8S52 65.6 52 60.7c0-2.4 1-4.6 2.5-6.2H67c1.7 1.6 2.6 3.8 2.6 6.2zm2.6-21h8.9v9.2h-8.9v-9.2zm7.7 44.4H41.8c-2.3 0-4.2-1.9-4.2-4.2V54.5h9.8c-.9 1.9-1.4 4-1.4 6.2 0 8.2 6.6 14.8 14.8 14.8s14.8-6.6 14.8-14.8c0-2.2-.5-4.3-1.4-6.2H84V80c.1 2.3-1.8 4.1-4.1 4.1z"/></symbol><symbol id="sprite-icon-vk" viewBox="0 0 117.2 117.2"><path d="M56.5 83.2h4.4s1.3-.1 2-.9c.6-.7.6-1.9.6-1.9s-.1-5.9 2.7-6.8c2.7-.9 6.2 5.7 9.9 8.2 2.8 1.9 4.9 1.5 4.9 1.5l9.8-.1s5.1-.3 2.7-4.4c-.2-.3-1.4-3-7.3-8.5-6.2-5.7-5.3-4.8 2.1-14.7 4.5-6 6.3-9.7 5.8-11.3-.5-1.5-3.9-1.1-3.9-1.1l-11.2.1s-.8-.1-1.4.3c-.6.4-1 1.2-1 1.2s-1.8 4.7-4.1 8.6c-4.9 8.4-6.9 8.8-7.7 8.3-1.9-1.2-1.4-4.9-1.4-7.5 0-8.1 1.2-11.5-2.4-12.4-1.2-.3-2.1-.5-5.2-.5-4 0-7.3 0-9.2.9-1.3.6-2.2 2-1.6 2.1.7.1 2.4.4 3.3 1.6 1.1 1.5 1.1 5 1.1 5s.7 9.6-1.5 10.7c-1.5.8-3.5-.8-7.9-8.4-2.3-3.9-4-8.2-4-8.2s-.3-.8-.9-1.2c-.7-.5-1.7-.7-1.7-.7l-10.5.1s-1.6 0-2.2.7c-.5.6 0 1.9 0 1.9s8.2 19.3 17.6 29c8.5 9 18.2 8.4 18.2 8.4z"/></symbol></svg>