<svg viewBox="0 0 117.2 117.2" id="inst" xmlns="http://www.w3.org/2000/svg">
  <path d="M56.5,83.2h4.4c0,0,1.3-0.1,2-0.9c0.6-0.7,0.6-1.9,0.6-1.9s-0.1-5.9,2.7-6.8c2.7-0.9,6.2,5.7,9.9,8.2
      c2.8,1.9,4.9,1.5,4.9,1.5l9.8-0.1c0,0,5.1-0.3,2.7-4.4c-0.2-0.3-1.4-3-7.3-8.5c-6.2-5.7-5.3-4.8,2.1-14.7c4.5-6,6.3-9.7,5.8-11.3
      c-0.5-1.5-3.9-1.1-3.9-1.1L79,43.3c0,0-0.8-0.1-1.4,0.3c-0.6,0.4-1,1.2-1,1.2s-1.8,4.7-4.1,8.6c-4.9,8.4-6.9,8.8-7.7,8.3
      c-1.9-1.2-1.4-4.9-1.4-7.5c0-8.1,1.2-11.5-2.4-12.4c-1.2-0.3-2.1-0.5-5.2-0.5c-4,0-7.3,0-9.2,0.9c-1.3,0.6-2.2,2-1.6,2.1
      c0.7,0.1,2.4,0.4,3.3,1.6c1.1,1.5,1.1,5,1.1,5s0.7,9.6-1.5,10.7c-1.5,0.8-3.5-0.8-7.9-8.4c-2.3-3.9-4-8.2-4-8.2s-0.3-0.8-0.9-1.2
      c-0.7-0.5-1.7-0.7-1.7-0.7l-10.5,0.1c0,0-1.6,0-2.2,0.7c-0.5,0.6,0,1.9,0,1.9s8.2,19.3,17.6,29C46.8,83.8,56.5,83.2,56.5,83.2
      L56.5,83.2z"/>
</svg>