<svg xmlns="http://www.w3.org/2000/svg"><symbol id="sprite-arrow-left"><path d="M2.045 20.859L21.458 1.446A.847.847 0 0 0 20.261.248L.248 20.261a.846.846 0 0 0 0 1.197l20.013 20.013a.843.843 0 0 0 1.198 0 .847.847 0 0 0 0-1.198L2.045 20.859z"/></symbol><symbol id="sprite-arrow-right"><path d="M19.661 20.859L.248 1.446A.847.847 0 0 1 1.445.248L21.458 20.26c.33.33.33.867 0 1.197L1.445 41.471a.843.843 0 0 1-1.198 0 .847.847 0 0 1 0-1.198l19.414-19.414z"/></symbol><symbol id="sprite-icon-facebook"><path d="M6.275 3.357h2.398V0H5.795C2.656.181 1.54 2.387 1.948 6.115H0v3.517h1.958v9.312h3.837V9.632h2.857V6.115H5.786c-.021-1.045-.036-2.406.489-2.758z"/></symbol><symbol id="sprite-icon-inst" viewBox="0 0 121.7 121.7">
	<path d="M79.9,31.5H41.8c-5.6,0-10.2,4.6-10.2,10.2V80c0,5.6,4.6,10.2,10.2,10.2h38.1c5.6,0,10.2-4.6,10.2-10.2V41.7
      C90.1,36.1,85.5,31.5,79.9,31.5z M69.6,60.7c0,4.9-3.9,8.8-8.8,8.8S52,65.6,52,60.7c0-2.4,1-4.6,2.5-6.2h12.5
      C68.7,56.1,69.6,58.3,69.6,60.7z M72.2,39.7h8.9v9.2h-8.9V39.7z M79.9,84.1H41.8c-2.3,0-4.2-1.9-4.2-4.2V54.5h9.8
      c-0.9,1.9-1.4,4-1.4,6.2c0,8.2,6.6,14.8,14.8,14.8s14.8-6.6,14.8-14.8c0-2.2-0.5-4.3-1.4-6.2h9.8V80C84.1,82.3,82.2,84.1,79.9,84.1z
      "/>
</symbol><symbol id="sprite-icon-vk" viewBox="0 0 117.2 117.2">
  <path d="M56.5,83.2h4.4c0,0,1.3-0.1,2-0.9c0.6-0.7,0.6-1.9,0.6-1.9s-0.1-5.9,2.7-6.8c2.7-0.9,6.2,5.7,9.9,8.2
      c2.8,1.9,4.9,1.5,4.9,1.5l9.8-0.1c0,0,5.1-0.3,2.7-4.4c-0.2-0.3-1.4-3-7.3-8.5c-6.2-5.7-5.3-4.8,2.1-14.7c4.5-6,6.3-9.7,5.8-11.3
      c-0.5-1.5-3.9-1.1-3.9-1.1L79,43.3c0,0-0.8-0.1-1.4,0.3c-0.6,0.4-1,1.2-1,1.2s-1.8,4.7-4.1,8.6c-4.9,8.4-6.9,8.8-7.7,8.3
      c-1.9-1.2-1.4-4.9-1.4-7.5c0-8.1,1.2-11.5-2.4-12.4c-1.2-0.3-2.1-0.5-5.2-0.5c-4,0-7.3,0-9.2,0.9c-1.3,0.6-2.2,2-1.6,2.1
      c0.7,0.1,2.4,0.4,3.3,1.6c1.1,1.5,1.1,5,1.1,5s0.7,9.6-1.5,10.7c-1.5,0.8-3.5-0.8-7.9-8.4c-2.3-3.9-4-8.2-4-8.2s-0.3-0.8-0.9-1.2
      c-0.7-0.5-1.7-0.7-1.7-0.7l-10.5,0.1c0,0-1.6,0-2.2,0.7c-0.5,0.6,0,1.9,0,1.9s8.2,19.3,17.6,29C46.8,83.8,56.5,83.2,56.5,83.2
      L56.5,83.2z"/>
</symbol></svg>